<?xml version="1.0" encoding="UTF-8" standalone="no"?>
<!-- Generator: Adobe Illustrator 21.0.2, SVG Export Plug-In . SVG Version: 6.00 Build 0)  -->

<svg
   xmlns:dc="http://purl.org/dc/elements/1.1/"
   xmlns:cc="http://creativecommons.org/ns#"
   xmlns:rdf="http://www.w3.org/1999/02/22-rdf-syntax-ns#"
   xmlns:svg="http://www.w3.org/2000/svg"
   xmlns="http://www.w3.org/2000/svg"
   xmlns:sodipodi="http://sodipodi.sourceforge.net/DTD/sodipodi-0.dtd"
   xmlns:inkscape="http://www.inkscape.org/namespaces/inkscape"
   version="1.1"
   x="0px"
   y="0px"
   viewBox="0 0 34.329 34.277"
   style="enable-background:new 0 0 34.329 34.277;"
   xml:space="preserve"
   id="svg8"
   sodipodi:docname="bcash-logo.svg"
   inkscape:version="0.92.5 (2060ec1f9f, 2020-04-08)"><metadata
   id="metadata14"><rdf:RDF><cc:Work
       rdf:about=""><dc:format>image/svg+xml</dc:format><dc:type
         rdf:resource="http://purl.org/dc/dcmitype/StillImage" /><dc:title></dc:title></cc:Work></rdf:RDF></metadata><defs
   id="defs12" /><sodipodi:namedview
   pagecolor="#ffffff"
   bordercolor="#666666"
   borderopacity="1"
   objecttolerance="10"
   gridtolerance="10"
   guidetolerance="10"
   inkscape:pageopacity="0"
   inkscape:pageshadow="2"
   inkscape:window-width="640"
   inkscape:window-height="480"
   id="namedview10"
   showgrid="false"
   inkscape:zoom="6.8850832"
   inkscape:cx="17.164499"
   inkscape:cy="17.1385"
   inkscape:window-x="337"
   inkscape:window-y="996"
   inkscape:window-maximized="0"
   inkscape:current-layer="svg8" />
<g
   id="Beats_x5F_by_x5F_Dr_x5F_Dre"
   style="fill:#ff8080">
	<path
   d="M12.279,0.769c3.742-1.175,7.893-1.002,11.514,0.505c6.106,2.313,10.322,8.591,10.516,15.064   c0.181,3.666-0.854,7.392-2.915,10.435c-3.232,4.959-9.269,7.845-15.145,7.472c-5.568-0.274-10.949-3.443-13.813-8.239   c-1.725-2.847-2.57-6.212-2.419-9.533c0.17-5.649,3.472-11.061,8.32-13.933C8.361,4.135,8.292,5.735,8.38,7.326   c-0.08,3.402-0.049,6.813-0.02,10.217c0.165,1.874,0.713,3.778,1.912,5.262c2.109,2.87,6.138,3.754,9.448,2.79   c2.496-0.601,4.549-2.493,5.659-4.772c1.21-2.629,1.077-5.872-0.52-8.315c-2.483-4.229-8.764-5.48-12.653-2.47   C12.261,6.95,12.125,3.847,12.279,0.769z"
   id="path2"
   style="fill:#ff8080" />
	<path
   d="M16.692,11.921c1.976-0.177,4.085,0.797,5.058,2.569c0.655,1.302,0.849,2.862,0.421,4.266   c-0.556,2.13-2.694,3.638-4.869,3.616c-1.939,0.133-3.878-1.061-4.681-2.824C11.033,16.486,13.13,12.155,16.692,11.921z"
   id="path4"
   style="fill:#ff8080" />
</g>
<g
   id="Layer_1">
</g>
</svg>